  0
SECTION
  2
HEADER
  9
$ACADVER
  1
AC1009
  9
$INSBASE
 10
0.0
 20
0.0
 30
0.0
  9
$EXTMIN
 10
1118655.37299999990
 20
1684123.27200000010
 30
0.0
  9
$EXTMAX
 10
1119163.05199999990
 20
1684703.55800000000
 30
1000.0
  0
ENDSEC
  0
SECTION
  2
TABLES
  0
TABLE
  2
LTYPE
 70
     5
  0
LTYPE
  2
CONTINUOUS
 70
     0
  3
Solid line
 72
    65
 73
     0
 40
0.0
  0
ENDTAB
  0
TABLE
  2
LAYER
 70
    2
  0
LAYER
  2
0
 70
    64
 62
     7
 6
CONTINUOUS
  0
LAYER
  2
00000000
 70
    64
 62
     7
 6
CONTINUOUS
  0
ENDTAB
   0
TABLE
   2
STYLE
 70
    2
  0
STYLE
  2
STANDARD
 70
    0
 40
0.0
 41
1.0
 50
0.0
 71
	0
 42
5.0
  3
romans
  4
ghs
  0
STYLE
  2
GHS
 70
    64
 40
0.0
 41
1.0
 50
0.0
 71
	0
 42
5.377037
  3
romans
  4
ghs
  0
ENDTAB
 0
ENDSEC
  0
SECTION
  2
BLOCKS
  0
ENDSEC
  0
SECTION
  2
ENTITIES
  0
POLYLINE
  8
00000000
 66
     1
 10
1118876.188
 20
1684662.066
 30
0.000
 70
8
  0
VERTEX
  8
00000000
 10
1118876.188
 20
1684662.066
 30
0.000
 70
    32
  0
VERTEX
  8
00000000
 10
1119115.718
 20
1684410.802
 30
0.000
 70
    32
  0
VERTEX
  8
00000000
 10
1119160.452
 20
1684203.255
 30
0.000
 70
    32
  0
VERTEX
  8
00000000
 10
1119163.052
 20
1684123.272
 30
0.000
 70
    32
  0
VERTEX
  8
00000000
 10
1119012.290
 20
1684125.731
 30
0.000
 70
    32
  0
VERTEX
  8
00000000
 10
1118892.364
 20
1684259.590
 30
0.000
 70
    32
  0
VERTEX
  8
00000000
 10
1118714.286
 20
1684568.599
 30
0.000
 70
    32
  0
VERTEX
  8
00000000
 10
1118655.373
 20
1684691.986
 30
0.000
 70
    32
  0
VERTEX
  8
00000000
 10
1118680.417
 20
1684703.558
 30
0.000
 70
    32
  0
VERTEX
  8
00000000
 10
1118750.443
 20
1684701.859
 30
0.000
 70
    32
  0
VERTEX
  8
00000000
 10
1118876.188
 20
1684662.066
 30
0.000
 70
    32
  0
SEQEND
  8
00000000
  0
ENDSEC
  0
EOF
