  0
SECTION
  2
HEADER
  9
$ACADVER
  1
AC1009
  9
$INSBASE
 10
0.0
 20
0.0
 30
0.0
  9
$EXTMIN
 10
1118655.37270900090
 20
1684123.27249070210
 30
0.0
  9
$EXTMAX
 10
1119163.05166372420
 20
1684703.55768864790
 30
1000.0
	9
HEIGHT
 60
200
  0
ENDSEC
  0
SECTION
  2
TABLES
  0
TABLE
  2
LTYPE
 70
     5
  0
LTYPE
  2
CONTINUOUS
 70
     0
  3
Solid line
 72
    65
 73
     0
 40
0.0
  0
ENDTAB
  0
TABLE
  2
LAYER
 70
    1
  0
LAYER
  2
00000000
 70
    64
 62
     7
 6
CONTINUOUS
  0
ENDTAB
   0
TABLE
   2
STYLE
 70
    2
  0
STYLE
  2
STANDARD
 70
    0
 40
0.0
 41
1.0
 50
0.0
 71
	0
 42
5.0
  3
romans
  4
ghs
  0
STYLE
  2
GHS
 70
    64
 40
0.0
 41
1.0
 50
0.0
 71
	0
 42
5.377037
  3
romans
  4
ghs
  0
ENDTAB
 0
ENDSEC
  0
SECTION
  2
BLOCKS
  0
ENDSEC
  0
SECTION
  2
ENTITIES
  0
POLYLINE
  8
00000000
 66
     1
 10
1118943.336
 20
1684533.567
 30
200.000
 70
8
  0
VERTEX
  8
00000000
 10
1118943.336
 20
1684533.567
 30
200.000
 70
    32
  0
VERTEX
  8
00000000
 10
1118969.385
 20
1684487.327
 30
200.000
 70
    32
  0
VERTEX
  8
00000000
 10
1118969.523
 20
1684487.114
 30
200.000
 70
    32
  0
VERTEX
  8
00000000
 10
1119009.001
 20
1684433.830
 30
200.000
 70
    32
  0
VERTEX
  8
00000000
 10
1119017.533
 20
1684431.989
 30
200.000
 70
    32
  0
VERTEX
  8
00000000
 10
1119022.449
 20
1684430.932
 30
200.000
 70
    32
  0
VERTEX
  8
00000000
 10
1119115.718
 20
1684410.802
 30
200.000
 70
    32
  0
VERTEX
  8
00000000
 10
1119121.437
 20
1684234.839
 30
200.000
 70
    32
  0
VERTEX
  8
00000000
 10
1119130.279
 20
1684223.622
 30
200.000
 70
    32
  0
VERTEX
  8
00000000
 10
1119160.452
 20
1684203.255
 30
200.000
 70
    32
  0
VERTEX
  8
00000000
 10
1119163.052
 20
1684123.272
 30
200.000
 70
    32
  0
VERTEX
  8
00000000
 10
1119021.927
 20
1684124.287
 30
200.000
 70
    32
  0
VERTEX
  8
00000000
 10
1119012.290
 20
1684125.731
 30
200.000
 70
    32
  0
VERTEX
  8
00000000
 10
1118892.364
 20
1684259.590
 30
200.000
 70
    32
  0
VERTEX
  8
00000000
 10
1118888.643
 20
1684268.304
 30
200.000
 70
    32
  0
VERTEX
  8
00000000
 10
1118820.269
 20
1684420.707
 30
200.000
 70
    32
  0
VERTEX
  8
00000000
 10
1118714.286
 20
1684568.599
 30
200.000
 70
    32
  0
VERTEX
  8
00000000
 10
1118655.373
 20
1684691.986
 30
200.000
 70
    32
  0
VERTEX
  8
00000000
 10
1118680.417
 20
1684703.558
 30
200.000
 70
    32
  0
VERTEX
  8
00000000
 10
1118750.443
 20
1684701.859
 30
200.000
 70
    32
  0
VERTEX
  8
00000000
 10
1118870.978
 20
1684662.283
 30
200.000
 70
    32
  0
VERTEX
  8
00000000
 10
1118884.757
 20
1684624.681
 30
200.000
 70
    32
  0
VERTEX
  8
00000000
 10
1118892.501
 20
1684611.026
 30
200.000
 70
    32
  0
VERTEX
  8
00000000
 10
1118894.557
 20
1684606.414
 30
200.000
 70
    32
  0
VERTEX
  8
00000000
 10
1118924.032
 20
1684569.643
 30
200.000
 70
    32
  0
VERTEX
  8
00000000
 10
1118929.474
 20
1684564.965
 30
200.000
 70
    32
  0
VERTEX
  8
00000000
 10
1118932.968
 20
1684553.251
 30
200.000
 70
    32
  0
VERTEX
  8
00000000
 10
1118934.097
 20
1684549.818
 30
200.000
 70
    32
  0
VERTEX
  8
00000000
 10
1118939.282
 20
1684540.301
 30
200.000
 70
    32
  0
VERTEX
  8
00000000
 10
1118943.336
 20
1684533.567
 30
200.000
 70
    32
  0
SEQEND
  8
00000000
  0
ENDSEC
  0
EOF
